<mxfile host="app.diagrams.net" agent="Mozilla/5.0 (Linux; Android 10; K) AppleWebKit/537.36 (KHTML, like Gecko) Chrome/138.0.0.0 Mobile Safari/537.36" version="28.0.6">
  <diagram name="PÃ¡gina-1" id="ANLJudOEo-d1D8DcbVV1">
    <mxGraphModel grid="1" page="1" gridSize="10" guides="1" tooltips="1" connect="1" arrows="1" fold="1" pageScale="1" pageWidth="827" pageHeight="1169" math="0" shadow="0">
      <root>
        <mxCell id="0" />
        <mxCell id="1" parent="0" />
        <mxCell id="s-3zIwTgQIlwCW-jrZwT-15" value="" style="ellipse;whiteSpace=wrap;html=1;" vertex="1" parent="1">
          <mxGeometry x="125" y="434" width="20" height="20" as="geometry" />
        </mxCell>
        <mxCell id="s-3zIwTgQIlwCW-jrZwT-20" value="" style="endArrow=none;html=1;rounded=0;exitX=0.5;exitY=1;exitDx=0;exitDy=0;entryX=0.5;entryY=0;entryDx=0;entryDy=0;" edge="1" parent="1" source="s-3zIwTgQIlwCW-jrZwT-15" target="s-3zIwTgQIlwCW-jrZwT-49">
          <mxGeometry width="50" height="50" relative="1" as="geometry">
            <mxPoint x="220" y="784" as="sourcePoint" />
            <mxPoint x="270" y="734" as="targetPoint" />
          </mxGeometry>
        </mxCell>
        <mxCell id="s-3zIwTgQIlwCW-jrZwT-38" value="" style="endArrow=none;html=1;rounded=0;exitX=0.25;exitY=0;exitDx=0;exitDy=0;entryX=0.5;entryY=1;entryDx=0;entryDy=0;" edge="1" parent="1" source="s-3zIwTgQIlwCW-jrZwT-49" target="s-3zIwTgQIlwCW-jrZwT-39">
          <mxGeometry width="50" height="50" relative="1" as="geometry">
            <mxPoint x="190" y="784" as="sourcePoint" />
            <mxPoint x="-30" y="484" as="targetPoint" />
          </mxGeometry>
        </mxCell>
        <mxCell id="s-3zIwTgQIlwCW-jrZwT-39" value="" style="ellipse;whiteSpace=wrap;html=1;fillColor=#FFFFFF;" vertex="1" parent="1">
          <mxGeometry x="90" y="434" width="20" height="20" as="geometry" />
        </mxCell>
        <mxCell id="s-3zIwTgQIlwCW-jrZwT-49" value="CLIENTE" style="whiteSpace=wrap;html=1;rounded=1;" vertex="1" parent="1">
          <mxGeometry x="75" y="474" width="120" height="60" as="geometry" />
        </mxCell>
        <mxCell id="s-3zIwTgQIlwCW-jrZwT-89" value="solicita" style="rhombus;whiteSpace=wrap;html=1;rounded=1;" vertex="1" parent="1">
          <mxGeometry x="220" y="464" width="80" height="80" as="geometry" />
        </mxCell>
        <mxCell id="s-3zIwTgQIlwCW-jrZwT-91" value="&lt;font size=&quot;1&quot;&gt;cliente_id&lt;/font&gt;" style="text;html=1;align=center;verticalAlign=middle;resizable=0;points=[];autosize=1;strokeColor=none;fillColor=none;" vertex="1" parent="1">
          <mxGeometry x="55" y="410" width="70" height="30" as="geometry" />
        </mxCell>
        <mxCell id="s-3zIwTgQIlwCW-jrZwT-92" value="&lt;font size=&quot;1&quot;&gt;nome&lt;/font&gt;" style="text;html=1;align=center;verticalAlign=middle;resizable=0;points=[];autosize=1;strokeColor=none;fillColor=none;" vertex="1" parent="1">
          <mxGeometry x="110" y="410" width="50" height="30" as="geometry" />
        </mxCell>
        <mxCell id="uRxE4g549aD8NvzZyj7G-3" value="" style="ellipse;whiteSpace=wrap;html=1;fillColor=#FFFFFF;" vertex="1" parent="1">
          <mxGeometry x="160" y="434" width="20" height="20" as="geometry" />
        </mxCell>
        <mxCell id="uRxE4g549aD8NvzZyj7G-4" value="" style="ellipse;whiteSpace=wrap;html=1;fillColor=#FFFFFF;" vertex="1" parent="1">
          <mxGeometry x="40" y="494" width="20" height="20" as="geometry" />
        </mxCell>
        <mxCell id="uRxE4g549aD8NvzZyj7G-5" value="" style="endArrow=none;html=1;rounded=0;exitX=0.75;exitY=0;exitDx=0;exitDy=0;entryX=0.5;entryY=1;entryDx=0;entryDy=0;" edge="1" parent="1" source="s-3zIwTgQIlwCW-jrZwT-49" target="uRxE4g549aD8NvzZyj7G-3">
          <mxGeometry width="50" height="50" relative="1" as="geometry">
            <mxPoint x="260" y="594" as="sourcePoint" />
            <mxPoint x="310" y="544" as="targetPoint" />
          </mxGeometry>
        </mxCell>
        <mxCell id="uRxE4g549aD8NvzZyj7G-6" value="" style="endArrow=none;html=1;rounded=0;exitX=1;exitY=0.5;exitDx=0;exitDy=0;entryX=0;entryY=0.5;entryDx=0;entryDy=0;" edge="1" parent="1" source="uRxE4g549aD8NvzZyj7G-4" target="s-3zIwTgQIlwCW-jrZwT-49">
          <mxGeometry width="50" height="50" relative="1" as="geometry">
            <mxPoint x="260" y="594" as="sourcePoint" />
            <mxPoint x="310" y="544" as="targetPoint" />
          </mxGeometry>
        </mxCell>
        <mxCell id="uRxE4g549aD8NvzZyj7G-7" value="email" style="text;html=1;align=center;verticalAlign=middle;resizable=0;points=[];autosize=1;strokeColor=none;fillColor=none;" vertex="1" parent="1">
          <mxGeometry x="145" y="410" width="50" height="30" as="geometry" />
        </mxCell>
        <mxCell id="uRxE4g549aD8NvzZyj7G-8" value="Telefone" style="text;html=1;align=center;verticalAlign=middle;resizable=0;points=[];autosize=1;strokeColor=none;fillColor=none;" vertex="1" parent="1">
          <mxGeometry x="5" y="464" width="70" height="30" as="geometry" />
        </mxCell>
        <mxCell id="uRxE4g549aD8NvzZyj7G-9" value="CATEGORIAS" style="rounded=1;whiteSpace=wrap;html=1;" vertex="1" parent="1">
          <mxGeometry x="580" y="830" width="120" height="60" as="geometry" />
        </mxCell>
        <mxCell id="uRxE4g549aD8NvzZyj7G-10" value="VENDA" style="rounded=1;whiteSpace=wrap;html=1;" vertex="1" parent="1">
          <mxGeometry x="330" y="474" width="120" height="60" as="geometry" />
        </mxCell>
        <mxCell id="uRxE4g549aD8NvzZyj7G-11" value="PRODUTOS" style="rounded=1;whiteSpace=wrap;html=1;" vertex="1" parent="1">
          <mxGeometry x="580" y="670" width="120" height="60" as="geometry" />
        </mxCell>
        <mxCell id="uRxE4g549aD8NvzZyj7G-12" value="PAGAMENTOS" style="rounded=1;whiteSpace=wrap;html=1;" vertex="1" parent="1">
          <mxGeometry x="330" y="664" width="120" height="60" as="geometry" />
        </mxCell>
        <mxCell id="uRxE4g549aD8NvzZyj7G-14" value="" style="endArrow=none;html=1;rounded=0;exitX=1;exitY=0.5;exitDx=0;exitDy=0;entryX=0;entryY=0.5;entryDx=0;entryDy=0;" edge="1" parent="1" source="s-3zIwTgQIlwCW-jrZwT-49" target="s-3zIwTgQIlwCW-jrZwT-89">
          <mxGeometry width="50" height="50" relative="1" as="geometry">
            <mxPoint x="260" y="594" as="sourcePoint" />
            <mxPoint x="310" y="544" as="targetPoint" />
          </mxGeometry>
        </mxCell>
        <mxCell id="uRxE4g549aD8NvzZyj7G-15" value="" style="endArrow=none;html=1;rounded=0;entryX=0;entryY=0.5;entryDx=0;entryDy=0;exitX=1;exitY=0.5;exitDx=0;exitDy=0;" edge="1" parent="1" source="s-3zIwTgQIlwCW-jrZwT-89" target="uRxE4g549aD8NvzZyj7G-10">
          <mxGeometry width="50" height="50" relative="1" as="geometry">
            <mxPoint x="260" y="594" as="sourcePoint" />
            <mxPoint x="310" y="544" as="targetPoint" />
          </mxGeometry>
        </mxCell>
        <mxCell id="uRxE4g549aD8NvzZyj7G-16" value="" style="ellipse;whiteSpace=wrap;html=1;fillColor=#FFFFFF;" vertex="1" parent="1">
          <mxGeometry x="320" y="434" width="20" height="20" as="geometry" />
        </mxCell>
        <mxCell id="uRxE4g549aD8NvzZyj7G-18" value="" style="ellipse;whiteSpace=wrap;html=1;fillColor=#FFFFFF;" vertex="1" parent="1">
          <mxGeometry x="380" y="430" width="20" height="20" as="geometry" />
        </mxCell>
        <mxCell id="uRxE4g549aD8NvzZyj7G-19" value="" style="ellipse;whiteSpace=wrap;html=1;fillColor=#FFFFFF;" vertex="1" parent="1">
          <mxGeometry x="440" y="434" width="20" height="20" as="geometry" />
        </mxCell>
        <mxCell id="uRxE4g549aD8NvzZyj7G-20" value="" style="endArrow=none;html=1;rounded=0;entryX=0.5;entryY=1;entryDx=0;entryDy=0;exitX=0.25;exitY=0;exitDx=0;exitDy=0;" edge="1" parent="1" source="uRxE4g549aD8NvzZyj7G-10" target="uRxE4g549aD8NvzZyj7G-16">
          <mxGeometry width="50" height="50" relative="1" as="geometry">
            <mxPoint x="260" y="594" as="sourcePoint" />
            <mxPoint x="310" y="544" as="targetPoint" />
          </mxGeometry>
        </mxCell>
        <mxCell id="uRxE4g549aD8NvzZyj7G-21" value="" style="endArrow=none;html=1;rounded=0;entryX=0.5;entryY=1;entryDx=0;entryDy=0;exitX=0.75;exitY=0;exitDx=0;exitDy=0;" edge="1" parent="1" source="uRxE4g549aD8NvzZyj7G-10" target="uRxE4g549aD8NvzZyj7G-19">
          <mxGeometry width="50" height="50" relative="1" as="geometry">
            <mxPoint x="260" y="594" as="sourcePoint" />
            <mxPoint x="310" y="544" as="targetPoint" />
          </mxGeometry>
        </mxCell>
        <mxCell id="uRxE4g549aD8NvzZyj7G-23" value="" style="endArrow=none;html=1;rounded=0;entryX=0.5;entryY=0;entryDx=0;entryDy=0;exitX=0.5;exitY=1;exitDx=0;exitDy=0;" edge="1" parent="1" source="uRxE4g549aD8NvzZyj7G-18" target="uRxE4g549aD8NvzZyj7G-10">
          <mxGeometry width="50" height="50" relative="1" as="geometry">
            <mxPoint x="260" y="594" as="sourcePoint" />
            <mxPoint x="310" y="544" as="targetPoint" />
          </mxGeometry>
        </mxCell>
        <mxCell id="uRxE4g549aD8NvzZyj7G-24" value="venda&lt;div&gt;id&lt;/div&gt;" style="text;html=1;align=center;verticalAlign=middle;resizable=0;points=[];autosize=1;strokeColor=none;fillColor=none;" vertex="1" parent="1">
          <mxGeometry x="300" y="400" width="60" height="40" as="geometry" />
        </mxCell>
        <mxCell id="uRxE4g549aD8NvzZyj7G-26" value="data&lt;div&gt;venda&lt;/div&gt;" style="text;html=1;align=center;verticalAlign=middle;resizable=0;points=[];autosize=1;strokeColor=none;fillColor=none;" vertex="1" parent="1">
          <mxGeometry x="360" y="395" width="60" height="40" as="geometry" />
        </mxCell>
        <mxCell id="uRxE4g549aD8NvzZyj7G-27" value="valor&lt;div&gt;total&lt;/div&gt;" style="text;html=1;align=center;verticalAlign=middle;resizable=0;points=[];autosize=1;strokeColor=none;fillColor=none;" vertex="1" parent="1">
          <mxGeometry x="440" y="400" width="50" height="40" as="geometry" />
        </mxCell>
        <mxCell id="uRxE4g549aD8NvzZyj7G-28" value="Ã© paga por" style="rhombus;whiteSpace=wrap;html=1;rounded=1;" vertex="1" parent="1">
          <mxGeometry x="350" y="554" width="80" height="80" as="geometry" />
        </mxCell>
        <mxCell id="uRxE4g549aD8NvzZyj7G-29" value="" style="endArrow=none;html=1;rounded=0;entryX=0.5;entryY=1;entryDx=0;entryDy=0;exitX=0.5;exitY=0;exitDx=0;exitDy=0;" edge="1" parent="1" source="uRxE4g549aD8NvzZyj7G-28" target="uRxE4g549aD8NvzZyj7G-10">
          <mxGeometry width="50" height="50" relative="1" as="geometry">
            <mxPoint x="260" y="594" as="sourcePoint" />
            <mxPoint x="310" y="544" as="targetPoint" />
          </mxGeometry>
        </mxCell>
        <mxCell id="uRxE4g549aD8NvzZyj7G-30" value="" style="endArrow=none;html=1;rounded=0;entryX=0.5;entryY=1;entryDx=0;entryDy=0;exitX=0.5;exitY=0;exitDx=0;exitDy=0;" edge="1" parent="1" source="uRxE4g549aD8NvzZyj7G-12" target="uRxE4g549aD8NvzZyj7G-28">
          <mxGeometry width="50" height="50" relative="1" as="geometry">
            <mxPoint x="260" y="594" as="sourcePoint" />
            <mxPoint x="310" y="544" as="targetPoint" />
          </mxGeometry>
        </mxCell>
        <mxCell id="uRxE4g549aD8NvzZyj7G-31" value="contÃ©m" style="rhombus;whiteSpace=wrap;html=1;rounded=1;" vertex="1" parent="1">
          <mxGeometry x="480" y="464" width="80" height="80" as="geometry" />
        </mxCell>
        <mxCell id="uRxE4g549aD8NvzZyj7G-32" value="" style="endArrow=none;html=1;rounded=0;entryX=0;entryY=0.5;entryDx=0;entryDy=0;exitX=1;exitY=0.5;exitDx=0;exitDy=0;" edge="1" parent="1" source="uRxE4g549aD8NvzZyj7G-10" target="uRxE4g549aD8NvzZyj7G-31">
          <mxGeometry width="50" height="50" relative="1" as="geometry">
            <mxPoint x="260" y="594" as="sourcePoint" />
            <mxPoint x="310" y="544" as="targetPoint" />
          </mxGeometry>
        </mxCell>
        <mxCell id="uRxE4g549aD8NvzZyj7G-34" value="" style="endArrow=none;html=1;rounded=0;entryX=1;entryY=0.5;entryDx=0;entryDy=0;exitX=0;exitY=0.5;exitDx=0;exitDy=0;" edge="1" parent="1" target="uRxE4g549aD8NvzZyj7G-31">
          <mxGeometry width="50" height="50" relative="1" as="geometry">
            <mxPoint x="580" y="507" as="sourcePoint" />
            <mxPoint x="310" y="544" as="targetPoint" />
          </mxGeometry>
        </mxCell>
        <mxCell id="uRxE4g549aD8NvzZyj7G-35" value="Agrupa" style="rhombus;whiteSpace=wrap;html=1;rounded=1;" vertex="1" parent="1">
          <mxGeometry x="600" y="740" width="80" height="80" as="geometry" />
        </mxCell>
        <mxCell id="uRxE4g549aD8NvzZyj7G-37" value="representa" style="rhombus;whiteSpace=wrap;html=1;rounded=1;" vertex="1" parent="1">
          <mxGeometry x="600" y="560" width="80" height="80" as="geometry" />
        </mxCell>
        <mxCell id="uRxE4g549aD8NvzZyj7G-38" value="" style="endArrow=none;html=1;rounded=0;entryX=0.5;entryY=1;entryDx=0;entryDy=0;exitX=0.5;exitY=0;exitDx=0;exitDy=0;" edge="1" parent="1" source="uRxE4g549aD8NvzZyj7G-37">
          <mxGeometry width="50" height="50" relative="1" as="geometry">
            <mxPoint x="300" y="580" as="sourcePoint" />
            <mxPoint x="640" y="540" as="targetPoint" />
          </mxGeometry>
        </mxCell>
        <mxCell id="uRxE4g549aD8NvzZyj7G-39" value="" style="endArrow=none;html=1;rounded=0;entryX=0.5;entryY=1;entryDx=0;entryDy=0;exitX=0.5;exitY=0;exitDx=0;exitDy=0;" edge="1" parent="1" source="uRxE4g549aD8NvzZyj7G-11" target="uRxE4g549aD8NvzZyj7G-37">
          <mxGeometry width="50" height="50" relative="1" as="geometry">
            <mxPoint x="420" y="580" as="sourcePoint" />
            <mxPoint x="470" y="530" as="targetPoint" />
          </mxGeometry>
        </mxCell>
        <mxCell id="uRxE4g549aD8NvzZyj7G-40" value="" style="endArrow=none;html=1;rounded=0;entryX=0.5;entryY=1;entryDx=0;entryDy=0;exitX=0.5;exitY=0;exitDx=0;exitDy=0;" edge="1" parent="1" source="uRxE4g549aD8NvzZyj7G-35" target="uRxE4g549aD8NvzZyj7G-11">
          <mxGeometry width="50" height="50" relative="1" as="geometry">
            <mxPoint x="420" y="580" as="sourcePoint" />
            <mxPoint x="470" y="530" as="targetPoint" />
          </mxGeometry>
        </mxCell>
        <mxCell id="uRxE4g549aD8NvzZyj7G-41" value="" style="endArrow=none;html=1;rounded=0;exitX=0.5;exitY=1;exitDx=0;exitDy=0;entryX=0.5;entryY=0;entryDx=0;entryDy=0;" edge="1" parent="1" source="uRxE4g549aD8NvzZyj7G-35" target="uRxE4g549aD8NvzZyj7G-9">
          <mxGeometry width="50" height="50" relative="1" as="geometry">
            <mxPoint x="420" y="580" as="sourcePoint" />
            <mxPoint x="470" y="530" as="targetPoint" />
          </mxGeometry>
        </mxCell>
        <mxCell id="uRxE4g549aD8NvzZyj7G-44" value="" style="ellipse;whiteSpace=wrap;html=1;fillColor=#FFFFFF;" vertex="1" parent="1">
          <mxGeometry x="630" y="440" width="20" height="20" as="geometry" />
        </mxCell>
        <mxCell id="uRxE4g549aD8NvzZyj7G-45" value="" style="ellipse;whiteSpace=wrap;html=1;fillColor=#FFFFFF;" vertex="1" parent="1">
          <mxGeometry x="670" y="444" width="20" height="20" as="geometry" />
        </mxCell>
        <mxCell id="uRxE4g549aD8NvzZyj7G-46" value="" style="ellipse;whiteSpace=wrap;html=1;fillColor=#FFFFFF;" vertex="1" parent="1">
          <mxGeometry x="730" y="494" width="20" height="20" as="geometry" />
        </mxCell>
        <mxCell id="uRxE4g549aD8NvzZyj7G-48" value="" style="ellipse;whiteSpace=wrap;html=1;fillColor=#FFFFFF;" vertex="1" parent="1">
          <mxGeometry x="330" y="755" width="20" height="20" as="geometry" />
        </mxCell>
        <mxCell id="uRxE4g549aD8NvzZyj7G-49" value="" style="ellipse;whiteSpace=wrap;html=1;fillColor=#FFFFFF;" vertex="1" parent="1">
          <mxGeometry x="380" y="755" width="20" height="20" as="geometry" />
        </mxCell>
        <mxCell id="uRxE4g549aD8NvzZyj7G-50" value="" style="ellipse;whiteSpace=wrap;html=1;fillColor=#FFFFFF;" vertex="1" parent="1">
          <mxGeometry x="420" y="760" width="20" height="20" as="geometry" />
        </mxCell>
        <mxCell id="uRxE4g549aD8NvzZyj7G-51" value="" style="ellipse;whiteSpace=wrap;html=1;fillColor=#FFFFFF;" vertex="1" parent="1">
          <mxGeometry x="280" y="684" width="20" height="20" as="geometry" />
        </mxCell>
        <mxCell id="uRxE4g549aD8NvzZyj7G-54" value="" style="ellipse;whiteSpace=wrap;html=1;fillColor=#FFFFFF;" vertex="1" parent="1">
          <mxGeometry x="520" y="650" width="20" height="20" as="geometry" />
        </mxCell>
        <mxCell id="uRxE4g549aD8NvzZyj7G-55" value="" style="ellipse;whiteSpace=wrap;html=1;fillColor=#FFFFFF;" vertex="1" parent="1">
          <mxGeometry x="520" y="690" width="20" height="20" as="geometry" />
        </mxCell>
        <mxCell id="uRxE4g549aD8NvzZyj7G-56" value="" style="ellipse;whiteSpace=wrap;html=1;fillColor=#FFFFFF;" vertex="1" parent="1">
          <mxGeometry x="720" y="670" width="20" height="20" as="geometry" />
        </mxCell>
        <mxCell id="uRxE4g549aD8NvzZyj7G-57" value="" style="ellipse;whiteSpace=wrap;html=1;fillColor=#FFFFFF;" vertex="1" parent="1">
          <mxGeometry x="520" y="730" width="20" height="20" as="geometry" />
        </mxCell>
        <mxCell id="uRxE4g549aD8NvzZyj7G-58" value="" style="ellipse;whiteSpace=wrap;html=1;fillColor=#FFFFFF;" vertex="1" parent="1">
          <mxGeometry x="570" y="920" width="20" height="20" as="geometry" />
        </mxCell>
        <mxCell id="uRxE4g549aD8NvzZyj7G-59" value="" style="ellipse;whiteSpace=wrap;html=1;fillColor=#FFFFFF;" vertex="1" parent="1">
          <mxGeometry x="630" y="920" width="20" height="20" as="geometry" />
        </mxCell>
        <mxCell id="uRxE4g549aD8NvzZyj7G-60" value="" style="ellipse;whiteSpace=wrap;html=1;fillColor=#FFFFFF;" vertex="1" parent="1">
          <mxGeometry x="700" y="920" width="20" height="20" as="geometry" />
        </mxCell>
        <mxCell id="uRxE4g549aD8NvzZyj7G-61" value="" style="endArrow=none;html=1;rounded=0;exitX=1;exitY=0.5;exitDx=0;exitDy=0;entryX=0;entryY=0.5;entryDx=0;entryDy=0;" edge="1" parent="1" source="uRxE4g549aD8NvzZyj7G-51" target="uRxE4g549aD8NvzZyj7G-12">
          <mxGeometry width="50" height="50" relative="1" as="geometry">
            <mxPoint x="370" y="680" as="sourcePoint" />
            <mxPoint x="420" y="630" as="targetPoint" />
          </mxGeometry>
        </mxCell>
        <mxCell id="uRxE4g549aD8NvzZyj7G-64" value="" style="endArrow=none;html=1;rounded=0;entryX=0.75;entryY=1;entryDx=0;entryDy=0;exitX=0.5;exitY=0;exitDx=0;exitDy=0;" edge="1" parent="1" source="uRxE4g549aD8NvzZyj7G-50" target="uRxE4g549aD8NvzZyj7G-12">
          <mxGeometry width="50" height="50" relative="1" as="geometry">
            <mxPoint x="370" y="680" as="sourcePoint" />
            <mxPoint x="420" y="630" as="targetPoint" />
          </mxGeometry>
        </mxCell>
        <mxCell id="uRxE4g549aD8NvzZyj7G-65" value="" style="endArrow=none;html=1;rounded=0;exitX=0.5;exitY=0;exitDx=0;exitDy=0;entryX=0.5;entryY=1;entryDx=0;entryDy=0;" edge="1" parent="1" source="uRxE4g549aD8NvzZyj7G-49" target="uRxE4g549aD8NvzZyj7G-12">
          <mxGeometry width="50" height="50" relative="1" as="geometry">
            <mxPoint x="370" y="680" as="sourcePoint" />
            <mxPoint x="420" y="630" as="targetPoint" />
          </mxGeometry>
        </mxCell>
        <mxCell id="uRxE4g549aD8NvzZyj7G-66" value="" style="endArrow=none;html=1;rounded=0;exitX=0.5;exitY=0;exitDx=0;exitDy=0;entryX=0.5;entryY=1;entryDx=0;entryDy=0;" edge="1" parent="1" source="uRxE4g549aD8NvzZyj7G-48" target="uRxE4g549aD8NvzZyj7G-12">
          <mxGeometry width="50" height="50" relative="1" as="geometry">
            <mxPoint x="370" y="680" as="sourcePoint" />
            <mxPoint x="420" y="630" as="targetPoint" />
          </mxGeometry>
        </mxCell>
        <mxCell id="uRxE4g549aD8NvzZyj7G-67" value="" style="endArrow=none;html=1;rounded=0;entryX=1;entryY=0.5;entryDx=0;entryDy=0;exitX=0;exitY=0.25;exitDx=0;exitDy=0;" edge="1" parent="1" source="uRxE4g549aD8NvzZyj7G-11" target="uRxE4g549aD8NvzZyj7G-54">
          <mxGeometry width="50" height="50" relative="1" as="geometry">
            <mxPoint x="370" y="680" as="sourcePoint" />
            <mxPoint x="420" y="630" as="targetPoint" />
          </mxGeometry>
        </mxCell>
        <mxCell id="uRxE4g549aD8NvzZyj7G-68" value="" style="endArrow=none;html=1;rounded=0;exitX=1;exitY=0.5;exitDx=0;exitDy=0;entryX=0;entryY=0.75;entryDx=0;entryDy=0;" edge="1" parent="1" source="uRxE4g549aD8NvzZyj7G-55" target="uRxE4g549aD8NvzZyj7G-11">
          <mxGeometry width="50" height="50" relative="1" as="geometry">
            <mxPoint x="370" y="680" as="sourcePoint" />
            <mxPoint x="420" y="630" as="targetPoint" />
          </mxGeometry>
        </mxCell>
        <mxCell id="uRxE4g549aD8NvzZyj7G-71" value="" style="endArrow=none;html=1;rounded=0;entryX=0.5;entryY=0;entryDx=0;entryDy=0;exitX=0.5;exitY=1;exitDx=0;exitDy=0;" edge="1" parent="1" source="uRxE4g549aD8NvzZyj7G-44" target="t28ejHq5HAoRSDzlhaBf-1">
          <mxGeometry width="50" height="50" relative="1" as="geometry">
            <mxPoint x="370" y="680" as="sourcePoint" />
            <mxPoint x="640" y="474" as="targetPoint" />
          </mxGeometry>
        </mxCell>
        <mxCell id="uRxE4g549aD8NvzZyj7G-72" value="" style="endArrow=none;html=1;rounded=0;exitX=1;exitY=0;exitDx=0;exitDy=0;entryX=0.5;entryY=1;entryDx=0;entryDy=0;" edge="1" parent="1" source="t28ejHq5HAoRSDzlhaBf-1" target="uRxE4g549aD8NvzZyj7G-45">
          <mxGeometry width="50" height="50" relative="1" as="geometry">
            <mxPoint x="670" y="474" as="sourcePoint" />
            <mxPoint x="420" y="630" as="targetPoint" />
          </mxGeometry>
        </mxCell>
        <mxCell id="uRxE4g549aD8NvzZyj7G-73" value="" style="endArrow=none;html=1;rounded=0;entryX=0;entryY=0.5;entryDx=0;entryDy=0;exitX=1;exitY=0.5;exitDx=0;exitDy=0;" edge="1" parent="1" target="uRxE4g549aD8NvzZyj7G-46">
          <mxGeometry width="50" height="50" relative="1" as="geometry">
            <mxPoint x="700" y="507" as="sourcePoint" />
            <mxPoint x="420" y="630" as="targetPoint" />
          </mxGeometry>
        </mxCell>
        <mxCell id="uRxE4g549aD8NvzZyj7G-74" value="" style="endArrow=none;html=1;rounded=0;exitX=1;exitY=0.5;exitDx=0;exitDy=0;entryX=0;entryY=0.5;entryDx=0;entryDy=0;" edge="1" parent="1" source="uRxE4g549aD8NvzZyj7G-57" target="uRxE4g549aD8NvzZyj7G-11">
          <mxGeometry width="50" height="50" relative="1" as="geometry">
            <mxPoint x="370" y="680" as="sourcePoint" />
            <mxPoint x="420" y="630" as="targetPoint" />
          </mxGeometry>
        </mxCell>
        <mxCell id="uRxE4g549aD8NvzZyj7G-76" value="Pagamento&lt;div&gt;ID&lt;/div&gt;" style="text;html=1;align=center;verticalAlign=middle;resizable=0;points=[];autosize=1;strokeColor=none;fillColor=none;" vertex="1" parent="1">
          <mxGeometry x="195" y="670" width="80" height="40" as="geometry" />
        </mxCell>
        <mxCell id="uRxE4g549aD8NvzZyj7G-78" value="data&lt;div&gt;pagamento&lt;/div&gt;" style="text;html=1;align=center;verticalAlign=middle;resizable=0;points=[];autosize=1;strokeColor=none;fillColor=none;" vertex="1" parent="1">
          <mxGeometry x="425" y="760" width="80" height="40" as="geometry" />
        </mxCell>
        <mxCell id="uRxE4g549aD8NvzZyj7G-79" value="valor&lt;div&gt;pago&lt;/div&gt;" style="text;html=1;align=center;verticalAlign=middle;resizable=0;points=[];autosize=1;strokeColor=none;fillColor=none;" vertex="1" parent="1">
          <mxGeometry x="365" y="775" width="50" height="40" as="geometry" />
        </mxCell>
        <mxCell id="uRxE4g549aD8NvzZyj7G-80" value="&lt;font style=&quot;font-size: 9px;&quot;&gt;metodo&lt;/font&gt;&lt;div&gt;&lt;font style=&quot;font-size: 9px;&quot;&gt;pagamento&lt;/font&gt;&lt;/div&gt;" style="text;html=1;align=center;verticalAlign=middle;resizable=0;points=[];autosize=1;strokeColor=none;fillColor=none;" vertex="1" parent="1">
          <mxGeometry x="290" y="770" width="70" height="40" as="geometry" />
        </mxCell>
        <mxCell id="uRxE4g549aD8NvzZyj7G-81" value="venda_produto&lt;div&gt;id&lt;/div&gt;" style="text;html=1;align=center;verticalAlign=middle;resizable=0;points=[];autosize=1;strokeColor=none;fillColor=none;" vertex="1" parent="1">
          <mxGeometry x="660" y="420" width="100" height="40" as="geometry" />
        </mxCell>
        <mxCell id="uRxE4g549aD8NvzZyj7G-84" value="quant" style="text;html=1;align=center;verticalAlign=middle;resizable=0;points=[];autosize=1;strokeColor=none;fillColor=none;" vertex="1" parent="1">
          <mxGeometry x="610" y="410" width="50" height="30" as="geometry" />
        </mxCell>
        <mxCell id="uRxE4g549aD8NvzZyj7G-85" value="preco" style="text;html=1;align=center;verticalAlign=middle;resizable=0;points=[];autosize=1;strokeColor=none;fillColor=none;" vertex="1" parent="1">
          <mxGeometry x="750" y="489" width="50" height="30" as="geometry" />
        </mxCell>
        <mxCell id="uRxE4g549aD8NvzZyj7G-86" value="produto&amp;nbsp;&lt;div&gt;id&lt;/div&gt;" style="text;html=1;align=center;verticalAlign=middle;resizable=0;points=[];autosize=1;strokeColor=none;fillColor=none;" vertex="1" parent="1">
          <mxGeometry x="475" y="630" width="70" height="40" as="geometry" />
        </mxCell>
        <mxCell id="uRxE4g549aD8NvzZyj7G-87" value="nome" style="text;html=1;align=center;verticalAlign=middle;resizable=0;points=[];autosize=1;strokeColor=none;fillColor=none;" vertex="1" parent="1">
          <mxGeometry x="470" y="684" width="50" height="30" as="geometry" />
        </mxCell>
        <mxCell id="uRxE4g549aD8NvzZyj7G-88" value="preco" style="text;html=1;align=center;verticalAlign=middle;resizable=0;points=[];autosize=1;strokeColor=none;fillColor=none;" vertex="1" parent="1">
          <mxGeometry x="470" y="725" width="50" height="30" as="geometry" />
        </mxCell>
        <mxCell id="uRxE4g549aD8NvzZyj7G-89" value="descricao" style="text;html=1;align=center;verticalAlign=middle;resizable=0;points=[];autosize=1;strokeColor=none;fillColor=none;" vertex="1" parent="1">
          <mxGeometry x="730" y="660" width="70" height="30" as="geometry" />
        </mxCell>
        <mxCell id="uRxE4g549aD8NvzZyj7G-92" value="" style="endArrow=none;html=1;rounded=0;entryX=1;entryY=0.25;entryDx=0;entryDy=0;exitX=0;exitY=0.5;exitDx=0;exitDy=0;" edge="1" parent="1" source="uRxE4g549aD8NvzZyj7G-56" target="uRxE4g549aD8NvzZyj7G-11">
          <mxGeometry width="50" height="50" relative="1" as="geometry">
            <mxPoint x="430" y="680" as="sourcePoint" />
            <mxPoint x="480" y="630" as="targetPoint" />
          </mxGeometry>
        </mxCell>
        <mxCell id="uRxE4g549aD8NvzZyj7G-94" value="" style="endArrow=none;html=1;rounded=0;entryX=0.5;entryY=0;entryDx=0;entryDy=0;exitX=0.5;exitY=1;exitDx=0;exitDy=0;" edge="1" parent="1" source="uRxE4g549aD8NvzZyj7G-9" target="uRxE4g549aD8NvzZyj7G-58">
          <mxGeometry width="50" height="50" relative="1" as="geometry">
            <mxPoint x="430" y="680" as="sourcePoint" />
            <mxPoint x="480" y="630" as="targetPoint" />
          </mxGeometry>
        </mxCell>
        <mxCell id="uRxE4g549aD8NvzZyj7G-95" value="" style="endArrow=none;html=1;rounded=0;exitX=0.5;exitY=0;exitDx=0;exitDy=0;entryX=0.5;entryY=1;entryDx=0;entryDy=0;" edge="1" parent="1" source="uRxE4g549aD8NvzZyj7G-59" target="uRxE4g549aD8NvzZyj7G-9">
          <mxGeometry width="50" height="50" relative="1" as="geometry">
            <mxPoint x="430" y="680" as="sourcePoint" />
            <mxPoint x="480" y="630" as="targetPoint" />
          </mxGeometry>
        </mxCell>
        <mxCell id="uRxE4g549aD8NvzZyj7G-96" value="" style="endArrow=none;html=1;rounded=0;entryX=0.5;entryY=1;entryDx=0;entryDy=0;exitX=0.5;exitY=0;exitDx=0;exitDy=0;" edge="1" parent="1" source="uRxE4g549aD8NvzZyj7G-60" target="uRxE4g549aD8NvzZyj7G-9">
          <mxGeometry width="50" height="50" relative="1" as="geometry">
            <mxPoint x="430" y="680" as="sourcePoint" />
            <mxPoint x="480" y="630" as="targetPoint" />
          </mxGeometry>
        </mxCell>
        <mxCell id="uRxE4g549aD8NvzZyj7G-97" value="nome" style="text;html=1;align=center;verticalAlign=middle;resizable=0;points=[];autosize=1;strokeColor=none;fillColor=none;" vertex="1" parent="1">
          <mxGeometry x="550" y="940" width="50" height="30" as="geometry" />
        </mxCell>
        <mxCell id="uRxE4g549aD8NvzZyj7G-98" value="descricao" style="text;html=1;align=center;verticalAlign=middle;resizable=0;points=[];autosize=1;strokeColor=none;fillColor=none;" vertex="1" parent="1">
          <mxGeometry x="615" y="940" width="70" height="30" as="geometry" />
        </mxCell>
        <mxCell id="uRxE4g549aD8NvzZyj7G-99" value="categoria&lt;div&gt;ID&lt;/div&gt;" style="text;html=1;align=center;verticalAlign=middle;resizable=0;points=[];autosize=1;strokeColor=none;fillColor=none;" vertex="1" parent="1">
          <mxGeometry x="700" y="935" width="70" height="40" as="geometry" />
        </mxCell>
        <mxCell id="uRxE4g549aD8NvzZyj7G-100" value="1" style="text;html=1;align=center;verticalAlign=middle;resizable=0;points=[];autosize=1;strokeColor=none;fillColor=none;" vertex="1" parent="1">
          <mxGeometry x="195" y="480" width="30" height="30" as="geometry" />
        </mxCell>
        <mxCell id="uRxE4g549aD8NvzZyj7G-101" value="N" style="text;html=1;align=center;verticalAlign=middle;resizable=0;points=[];autosize=1;strokeColor=none;fillColor=none;" vertex="1" parent="1">
          <mxGeometry x="305" y="480" width="30" height="30" as="geometry" />
        </mxCell>
        <mxCell id="uRxE4g549aD8NvzZyj7G-102" value="1" style="text;html=1;align=center;verticalAlign=middle;resizable=0;points=[];autosize=1;strokeColor=none;fillColor=none;" vertex="1" parent="1">
          <mxGeometry x="640" y="810" width="30" height="30" as="geometry" />
        </mxCell>
        <mxCell id="uRxE4g549aD8NvzZyj7G-103" value="N" style="text;html=1;align=center;verticalAlign=middle;resizable=0;points=[];autosize=1;strokeColor=none;fillColor=none;" vertex="1" parent="1">
          <mxGeometry x="640" y="725" width="30" height="30" as="geometry" />
        </mxCell>
        <mxCell id="uRxE4g549aD8NvzZyj7G-104" value="1" style="text;html=1;align=center;verticalAlign=middle;resizable=0;points=[];autosize=1;strokeColor=none;fillColor=none;" vertex="1" parent="1">
          <mxGeometry x="384" y="534" width="30" height="30" as="geometry" />
        </mxCell>
        <mxCell id="uRxE4g549aD8NvzZyj7G-105" value="1" style="text;html=1;align=center;verticalAlign=middle;resizable=0;points=[];autosize=1;strokeColor=none;fillColor=none;" vertex="1" parent="1">
          <mxGeometry x="450" y="474" width="30" height="30" as="geometry" />
        </mxCell>
        <mxCell id="uRxE4g549aD8NvzZyj7G-106" value="N" style="text;html=1;align=center;verticalAlign=middle;resizable=0;points=[];autosize=1;strokeColor=none;fillColor=none;" vertex="1" parent="1">
          <mxGeometry x="390" y="635" width="30" height="30" as="geometry" />
        </mxCell>
        <mxCell id="uRxE4g549aD8NvzZyj7G-107" value="N" style="text;html=1;align=center;verticalAlign=middle;resizable=0;points=[];autosize=1;strokeColor=none;fillColor=none;" vertex="1" parent="1">
          <mxGeometry x="640" y="544" width="30" height="30" as="geometry" />
        </mxCell>
        <mxCell id="uRxE4g549aD8NvzZyj7G-108" value="N" style="text;html=1;align=center;verticalAlign=middle;resizable=0;points=[];autosize=1;strokeColor=none;fillColor=none;" vertex="1" parent="1">
          <mxGeometry x="635" y="645" width="30" height="30" as="geometry" />
        </mxCell>
        <mxCell id="uRxE4g549aD8NvzZyj7G-109" value="N" style="text;html=1;align=center;verticalAlign=middle;resizable=0;points=[];autosize=1;strokeColor=none;fillColor=none;" vertex="1" parent="1">
          <mxGeometry x="550" y="474" width="30" height="30" as="geometry" />
        </mxCell>
        <mxCell id="t28ejHq5HAoRSDzlhaBf-1" value="Venda&lt;div&gt;produto&lt;/div&gt;" style="rhombus;whiteSpace=wrap;html=1;" vertex="1" parent="1">
          <mxGeometry x="580" y="477" width="120" height="60" as="geometry" />
        </mxCell>
      </root>
    </mxGraphModel>
  </diagram>
</mxfile>
